<?xml version="1.0" encoding="UTF-8" standalone="no"?>
<svg
   width="426.09"
   height="431.07101"
   viewBox="0 0 426.09 431.07101"
   role="img"
   aria-label="Logo: فريق السلامة والصحة المهنية - مستشفى حميات شنتنا الحجر"
   version="1.1"
   id="svg8"
   sodipodi:docname="safety-team-logo_02.svg"
   inkscape:version="1.4.2 (ebf0e940d0, 2025-05-08)"
   inkscape:export-filename="safety-team-logo_02.png"
   inkscape:export-xdpi="173.62117"
   inkscape:export-ydpi="173.62117"
   xmlns:inkscape="http://www.inkscape.org/namespaces/inkscape"
   xmlns:sodipodi="http://sodipodi.sourceforge.net/DTD/sodipodi-0.dtd"
   xmlns="http://www.w3.org/2000/svg"
   xmlns:svg="http://www.w3.org/2000/svg"
   xmlns:rdf="http://www.w3.org/1999/02/22-rdf-syntax-ns#"
   xmlns:cc="http://creativecommons.org/ns#"
   xmlns:dc="http://purl.org/dc/elements/1.1/">
  <sodipodi:namedview
     id="namedview8"
     pagecolor="#ffffff"
     bordercolor="#000000"
     borderopacity="0.25"
     inkscape:showpageshadow="2"
     inkscape:pageopacity="0.0"
     inkscape:pagecheckerboard="0"
     inkscape:deskcolor="#d1d1d1"
     inkscape:zoom="1.00375"
     inkscape:cx="399.50187"
     inkscape:cy="68.244085"
     inkscape:window-width="1920"
     inkscape:window-height="1011"
     inkscape:window-x="0"
     inkscape:window-y="0"
     inkscape:window-maximized="1"
     inkscape:current-layer="svg8" />
  <style
     id="style1">
    .bg { fill: #17324a; }
    .shield { fill: #0b76d1; filter: drop-shadow(0 6px 10px rgba(11,118,209,0.18)); }
    .helmet { fill: #ffffff; }
    .crescent { fill: #2fb67a; }
    .heart { fill: #ff6b6b; }
    .text-ar { fill: #0b76d1; font-family: &quot;Noto Naskh Arabic&quot;, &quot;Segoe UI&quot;, sans-serif; font-size: 34px; font-weight: 700; }
    .text-en { fill: #0b76d1; font-family: &quot;Segoe UI&quot;, sans-serif; font-size: 20px; font-weight: 600; opacity: 0.9; }
  </style>
  <!-- Background -->
  <!--rect
     class="bg"
     x="0"
     y="-97.125038"
     width="368.61768"
     height="442.34122"
     rx="11.058531"
     id="rect1"
     style="stroke-width:0.504751" /-->
  <!-- المجموعة المركزية -->
  <g
     transform="matrix(1,0,0,0.95245104,218.53311,199.21504)"
     id="g7"
     style="display:inline">
    <!-- الدرع -->
    <path
       class="shield"
       d="m -1,-190 c 111,7 171,57 177,190 -5,150 -130,240 -178,241 -43,-2 -180,-93 -183,-245 -4,-118 55,-177 183,-186 z"
       id="path1" />
    <!-- اللوحة البيضاء -->
    <path
       class="helmet"
       d="m 0,-140 c 70,0 100,40 100,100 C 100,40 30,110 0,140 -30,110 -100,40 -100,-40 c 0,-60 30,-100 100,-100 z"
       id="path2" />
    <!-- الهلال -->
    <g
       transform="translate(36,-25)"
       id="g3">
      <path
         class="crescent"
         d="M 40,0 A 80,80 0 1 1 -40,-60 60,60 0 1 0 40,0 Z"
         id="path3" />
    </g>
    <!-- الخوذة -->
    <g
       transform="translate(0,-110)"
       id="g5">
      <path
         class="helmet"
         d="m -110,0 c 20,-40 50,-58 100,-60 h 20 c 50,2 80,20 100,60 V 10 C 55,0 25,18 -25,18 -75,18 -105,0 -110,10 Z"
         id="path4" />
      <path
         d="M -80,0 C -40,-26 40,-26 80,0"
         fill="none"
         stroke="#e6eef6"
         stroke-width="8"
         stroke-linecap="round"
         id="path5" />
    </g>
    <!-- القلب -->
    <g
       transform="matrix(0.7,0,0,0.7,10,-10)"
       id="g6">
      <path
         class="heart"
         d="M 0,36 C -24,10 -60,-8 -54,-34 -48,-58 -18,-66 0,-48 18,-66 48,-58 54,-34 60,-8 24,10 0,36 Z"
         id="path6" />
    </g>
  </g>
  <!-- المسارات للنصوص -->
  <defs
     id="defs7">
    <!-- القوس العلوي للنص العربي -->
    <path
       id="arcTop"
       d="m 150,520 a 300,300 0 0 1 500,0"
       fill="none" />
    <!-- القوس السفلي للنص الإنجليزي -->
    <path
       id="arcBottom"
       d="m 150,650 a 300,300 0 0 0 500,0"
       fill="none" />
    <path
       id="arcBottom-3"
       d="m 150,650 a 300,300 0 0 0 500,0"
       fill="none" />
    <path
       id="arcBottom-5"
       d="m 150,650 a 300,300 0 0 0 500,0"
       fill="none" />
    <path
       id="arcBottom-3-1"
       d="m 150,640 a 300,300 0 0 1 500,0"
       fill="none" />
  </defs>
  <!-- النصوص -->
  <text
     class="text-ar"
     id="text7"
     transform="rotate(-111.81522,329.7903,388.07559)"
     style="display:none"><textPath
       href="#arcTop"
       startOffset="50%"
       text-anchor="middle"
       id="textPath7"
       style="fill:#ffffff">السلامة والصحة المهنية</textPath></text>
  <text
     class="text-en"
     id="text8-2"
     transform="rotate(69.15936,615.91474,296.65252)"
     style="font-weight:600;font-size:22px;font-family:'Segoe UI', sans-serif;display:inline;opacity:0.9;fill:#0b76d1"><textPath
       href="#arcBottom-5"
       startOffset="50%"
       text-anchor="middle"
       id="textPath8-9"
       style="font-size:22px;fill:#ffffff">Occupational Health &amp; Safety</textPath></text>
  <text
     class="text-en"
     id="text8"
     transform="rotate(-66.706687,112.55999,473.27447)"
     style="font-size:22.9333px;display:none"><textPath
       href="#arcBottom"
       startOffset="50%"
       text-anchor="middle"
       id="textPath8"
       style="font-size:22.9333px;fill:#ffffff">Occupational Health &amp; Safety</textPath></text>
  <title
     id="title8">فريق السلامة والصحة المهنية - مستشفى حميات شنتنا الحجر</title>
  <desc
     id="desc8">شعار بدرع، خوذة، وهلال، ونص منحني بالعربية والإنجليزية.</desc>
  <metadata
     id="metadata8">
    <rdf:RDF>
      <cc:Work
         rdf:about="">
        <dc:title>فريق السلامة والصحة المهنية - مستشفى حميات شنتنا الحجر</dc:title>
      </cc:Work>
    </rdf:RDF>
  </metadata>
  <text
     class="text-en"
     id="text8-7"
     transform="rotate(-70.218238,4.7358174,562.14293)"
     style="font-weight:600;font-size:34px;font-family:'Segoe UI', sans-serif;display:inline;opacity:0.9;fill:#0b76d1"><textPath
       href="#arcBottom-3"
       startOffset="50%"
       text-anchor="middle"
       id="textPath8-5"
       style="font-style:normal;font-variant:normal;font-weight:bold;font-stretch:normal;font-size:34px;font-family:'Noto Naskh Arabic', 'Segoe UI', sans-serif;-inkscape-font-specification:'Noto Naskh Arabic, Segoe UI, sans-serif Bold';fill:#ffffff">السلامة والصحة المهنية</textPath></text>
  <text
     class="text-en"
     id="text8-7-7"
     transform="matrix(0.84501796,-0.01174271,0.00992349,0.99993105,-126.14605,-432.843)"
     style="font-weight:600;font-size:34px;font-family:'Segoe UI', sans-serif;display:inline;opacity:0.9;fill:#0b76d1"><textPath
       href="#arcBottom-3-1"
       startOffset="50%"
       text-anchor="middle"
       id="textPath8-5-0"
       style="font-style:normal;font-variant:normal;font-weight:bold;font-stretch:normal;font-size:34px;font-family:'Noto Naskh Arabic', 'Segoe UI', sans-serif;-inkscape-font-specification:'Noto Naskh Arabic, Segoe UI, sans-serif Bold';fill:#0b76d1">حميات شنتنا الحجر</textPath></text>
  <ellipse
     cx="213.04485"
     cy="215.53551"
     stroke="#0b76d1"
     stroke-width="9.52385"
     fill="none"
     id="circle1"
     rx="208.28291"
     ry="210.77357" />
</svg>
